<svg xmlns="http://www.w3.org/2000/svg" width="17.638" height="17.214" viewBox="0 0 17.638 17.214">
  <path id="Path_383" data-name="Path 383" d="M3.9,5.078,1.354,2.541,2.507,1.393,18.646,17.46l-1.153,1.147-2.7-2.686A8.985,8.985,0,0,1,1.181,10,8.9,8.9,0,0,1,3.9,5.078Zm8.345,8.308L11.054,12.2a2.454,2.454,0,0,1-2.785-.475,2.426,2.426,0,0,1-.477-2.772L6.6,7.763a4.043,4.043,0,0,0,.517,5.108A4.09,4.09,0,0,0,12.247,13.385ZM6.718,3.314A8.988,8.988,0,0,1,18.819,10a8.863,8.863,0,0,1-1.64,3.726l-3.146-3.132a4.046,4.046,0,0,0-1.15-3.465A4.087,4.087,0,0,0,9.4,5.985L6.718,3.315Z" transform="translate(-1.181 -1.393)"/>
</svg>
