<svg xmlns="http://www.w3.org/2000/svg" width="150" height="150" viewBox="0 0 150 150">
  <g id="noun-congratulation-2453382" transform="translate(-78.75 -8.75)" opacity="0.8">
    <path id="Path_698" data-name="Path 698" d="M253.542,323.75H161.931l-9.841,18.472h8.9v41.562h93.49V342.222h8.9Zm-3.04,4.618,4.921,9.236H216.638l-4.921-9.236Zm-85.53,0h38.782l-4.921,9.236H160.052Zm84.588,50.8H210.2V363h-4.921v16.163H165.912V342.222h35.965l3.4-6.382v20.236H210.2V335.84l3.4,6.382h35.965Z" transform="translate(-53.987 -225.034)" fill="#ff8d21"/>
    <path id="Path_699" data-name="Path 699" d="M218.75,463.75H232.6v4.618H218.75Z" transform="translate(-101.101 -328.09)" fill="#ff8d21"/>
    <path id="Path_700" data-name="Path 700" d="M218.75,498.75H232.6v4.618H218.75Z" transform="translate(-101.101 -353.854)" fill="#ff8d21"/>
    <path id="Path_701" data-name="Path 701" d="M288.75,498.75h4.618v4.618H288.75Z" transform="translate(-151.847 -353.854)" fill="#ff8d21"/>
    <path id="Path_702" data-name="Path 702" d="M291.451,55.384l10.663-2.717,10.662,2.715.836-11.45,5.664-9.675L309.258,29.92l-7.144-8.834-7.147,8.834-10.018,4.337,5.664,9.675Zm6.393-21.679,4.27-5.276,4.27,5.279,6.275,2.717-3.572,6.1-.512,7.022L302.114,47.9l-6.461,1.644-.512-7.022-3.572-6.1Z" transform="translate(-148.365 -9.081)" fill="#ff8d21"/>
    <path id="Path_703" data-name="Path 703" d="M127.073,130.95l3.355-5.728-5.943-2.575-4.292-5.309-4.292,5.306-5.943,2.575,3.355,5.728.5,6.832,6.384-1.624,6.387,1.626Zm-4.525-1.408-.175,2.4-2.18-.555-2.177.555-.178-2.4-1.263-2.159,2.2-.953,1.417-1.748,1.415,1.75,2.2.953Z" transform="translate(-22.972 -78.336)" fill="#ff8d21"/>
    <path id="Path_704" data-name="Path 704" d="M529.573,130.95l3.355-5.728-5.943-2.575-4.292-5.309-4.292,5.306-5.943,2.575,3.355,5.728.5,6.832,6.384-1.624,6.387,1.626Zm-4.525-1.408-.175,2.4-2.18-.555-2.177.555-.175-2.4-1.263-2.159,2.2-.953,1.414-1.748,1.415,1.75,2.2.953Z" transform="translate(-312.416 -78.336)" fill="#ff8d21"/>
    <path id="Path_705" data-name="Path 705" d="M182.907,176.377a51.221,51.221,0,0,1,11.6,10.64l9.146,11.427-1.892-15.128a29.659,29.659,0,0,0-11.575-19.945l-2.212-1.658-6.767,13.533Zm6.654-7.5a25.055,25.055,0,0,1,7.46,13.932,55.908,55.908,0,0,0-9.873-9.107Z" transform="translate(-73.89 -110.004)" fill="#ff8d21"/>
    <path id="Path_706" data-name="Path 706" d="M435.614,183.3l-1.892,15.128L442.868,187a51.259,51.259,0,0,1,11.6-10.64l1.695-1.132L449.4,161.692l-2.212,1.664A29.652,29.652,0,0,0,435.614,183.3Zm14.616-9.617a55.672,55.672,0,0,0-9.873,9.107,25.08,25.08,0,0,1,7.46-13.932Z" transform="translate(-255.991 -109.988)" fill="#ff8d21"/>
    <path id="Path_707" data-name="Path 707" d="M385,186.187h4.618v-9.675A47.581,47.581,0,0,1,400.63,146.1l-3.549-2.955A52.22,52.22,0,0,0,385,176.513Z" transform="translate(-221.099 -96.508)" fill="#ff8d21"/>
    <path id="Path_708" data-name="Path 708" d="M446.25,113.75h4.618v4.618H446.25Z" transform="translate(-265.733 -75.924)" fill="#ff8d21"/>
    <path id="Path_709" data-name="Path 709" d="M472.5,78.75h4.618v4.618H472.5Z" transform="translate(-284.713 -51.528)" fill="#ff8d21"/>
    <path id="Path_710" data-name="Path 710" d="M266.79,186.187h4.618v-9.675a52.23,52.23,0,0,0-12.078-33.366l-3.549,2.955a47.6,47.6,0,0,1,11.009,30.41Z" transform="translate(-127.809 -96.507)" fill="#ff8d21"/>
    <path id="Path_711" data-name="Path 711" d="M236.25,113.75h4.618v4.618H236.25Z" transform="translate(-113.885 -75.924)" fill="#ff8d21"/>
    <path id="Path_712" data-name="Path 712" d="M210,78.75h4.618v4.618H210Z" transform="translate(-94.904 -51.528)" fill="#ff8d21"/>
    <path id="Path_713" data-name="Path 713" d="M341.25,157.5h4.618v4.618H341.25Z" transform="translate(-189.809 -107.558)" fill="#ff8d21"/>
    <path id="Path_714" data-name="Path 714" d="M341.25,192.5h4.618v30.017H341.25Z" transform="translate(-189.809 -132.329)" fill="#ff8d21"/>
    <path id="Path_715" data-name="Path 715" d="M586.25,245h4.618v4.618H586.25Z" transform="translate(-366.736 -170.828)" fill="#ff8d21"/>
    <path id="Path_716" data-name="Path 716" d="M586.25,280h4.618v4.618H586.25Z" transform="translate(-366.736 -196.136)" fill="#ff8d21"/>
    <path id="Path_717" data-name="Path 717" d="M603.75,262.5h4.618v4.618H603.75Z" transform="translate(-379.618 -183.482)" fill="#ff8d21"/>
    <path id="Path_718" data-name="Path 718" d="M568.75,262.5h4.618v4.618H568.75Z" transform="translate(-353.854 -183.482)" fill="#ff8d21"/>
    <path id="Path_719" data-name="Path 719" d="M560,8.75h4.618v4.618H560Z" transform="translate(-347.413)" fill="#ff8d21"/>
    <path id="Path_720" data-name="Path 720" d="M560,43.75h4.618v4.618H560Z" transform="translate(-347.413 -25.764)" fill="#ff8d21"/>
    <path id="Path_721" data-name="Path 721" d="M577.5,26.25h4.618v4.618H577.5Z" transform="translate(-360.295 -12.882)" fill="#ff8d21"/>
    <path id="Path_722" data-name="Path 722" d="M542.5,26.25h4.618v4.618H542.5Z" transform="translate(-334.531 -12.882)" fill="#ff8d21"/>
    <path id="Path_723" data-name="Path 723" d="M96.25,280h4.618v4.618H96.25Z" transform="translate(-12.882 -196.136)" fill="#ff8d21"/>
    <path id="Path_724" data-name="Path 724" d="M96.25,315h4.618v4.618H96.25Z" transform="translate(-12.882 -221.444)" fill="#ff8d21"/>
    <path id="Path_725" data-name="Path 725" d="M113.75,297.5h4.618v4.618H113.75Z" transform="translate(-25.764 -208.79)" fill="#ff8d21"/>
    <path id="Path_726" data-name="Path 726" d="M78.75,297.5h4.618v4.618H78.75Z" transform="translate(0 -208.79)" fill="#ff8d21"/>
    <path id="Path_727" data-name="Path 727" d="M96.25,8.75h4.618v4.618H96.25Z" transform="translate(-12.882)" fill="#ff8d21"/>
    <path id="Path_728" data-name="Path 728" d="M96.25,43.75h4.618v4.618H96.25Z" transform="translate(-12.882 -25.764)" fill="#ff8d21"/>
    <path id="Path_729" data-name="Path 729" d="M113.75,26.25h4.618v4.618H113.75Z" transform="translate(-25.764 -12.882)" fill="#ff8d21"/>
    <path id="Path_730" data-name="Path 730" d="M78.75,26.25h4.618v4.618H78.75Z" transform="translate(0 -12.882)" fill="#ff8d21"/>
  </g>
</svg>
