<svg xmlns="http://www.w3.org/2000/svg" width="24.347" height="22.942" viewBox="0 0 24.347 22.942">
  <path id="Path_906" data-name="Path 906" d="M19.651,3c3.7,0,6.7,3.1,6.7,7.441,0,8.681-9.13,13.641-12.173,15.5C11.13,24.082,2,19.121,2,10.441,2,6.1,5.043,3,8.7,3a7.99,7.99,0,0,1,5.478,2.48A7.99,7.99,0,0,1,19.651,3ZM15.31,22.351a32.814,32.814,0,0,0,2.946-2.109c3.629-2.939,5.656-6.151,5.656-9.8,0-2.927-1.871-4.96-4.261-4.96a5.564,5.564,0,0,0-3.757,1.754L14.173,8.987,12.452,7.234A5.564,5.564,0,0,0,8.7,5.48c-2.362,0-4.261,2.054-4.261,4.96,0,3.651,2.028,6.862,5.655,9.8a32.759,32.759,0,0,0,2.947,2.108c.364.234.724.459,1.137.709.413-.251.773-.475,1.137-.708Z" transform="translate(-2 -3)" fill="#ff8d22" opacity="0.8"/>
</svg>
